<svg xmlns="http://www.w3.org/2000/svg" xmlns:xlink="http://www.w3.org/1999/xlink" width="70" height="70" version="1.1" viewBox="0 0 70 70"><title>pack1_ headset</title><desc>Created with Sketch.</desc><g id="pack1_-headset" fill="none" fill-rule="evenodd" stroke="none" stroke-width="1"><g id="baseline-headset_mic-24px" fill="#000" transform="translate(8.000000, 2.000000)"><path id="Shape" d="M27,0.916666667 C12.5041667,0.916666667 0.75,12.6708333 0.75,27.1666667 L0.75,47.5833333 C0.75,52.425 4.65833333,56.3333333 9.5,56.3333333 L18.25,56.3333333 L18.25,33 L6.58333333,33 L6.58333333,27.1666667 C6.58333333,15.8791667 15.7125,6.75 27,6.75 C38.2875,6.75 47.4166667,15.8791667 47.4166667,27.1666667 L47.4166667,33 L35.75,33 L35.75,56.3333333 L47.4166667,56.3333333 L47.4166667,59.25 L27,59.25 L27,65.0833333 L44.5,65.0833333 C49.3416667,65.0833333 53.25,61.175 53.25,56.3333333 L53.25,27.1666667 C53.25,12.6708333 41.4958333,0.916666667 27,0.916666667 Z"/></g></g></svg>